{"title":"Kara Sevda S01E24.Dvdrip.Anonymous.Greek Subs","uid":15282501,"size":414524415,"categoryP":"video","categoryS":"tv_shows","magnet":"?xt=urn:btih:d72efff6dab1072f078c854abefbcaa41151a310&amp;dn=Kara+Sevda+S01E24.Dvdrip.Anonymous.Greek+Subs&amp;tr=udp%3A%2F%2Ftracker.leechers-paradise.org%3A6969&amp;tr=udp%3A%2F%2Fzer0day.ch%3A1337&amp;tr=udp%3A%2F%2Fopen.demonii.com%3A1337&amp;tr=udp%3A%2F%2Ftracker.coppersurfer.tk%3A6969&amp;tr=udp%3A%2F%2Fexodus.desync.com%3A6969","seeders":5,"leechers":3,"uploader":"Aris2015","files":1,"time":1468357030,"description":"Kara Sevda S01E25.DVB-T.X264.ARI-----&gt;Î­ÏÏ‡ÎµÏ„Î±Î¹ Î±ÏÏÎ¹Î¿ Ï„Î¿ Ï€ÏÏ‰Î¯.\r\n\r\n\r\nGeneral\r\nComplete name               : Kara Sevda S01E24.DVDrip.mp4\r\nFormat                      : MPEG-4\r\nFormat profile              : Base Media\r\nCodec ID                    : isom (isom/iso2/avc1/mp41)\r\nFile size                   : 395 MiB\r\nDuration                    : 46mn 0s\r\nOverall bit rate            : 1 201 Kbps\r\nWriting application         : Lavf57.37.100\r\n\r\nVideo\r\nID                          : 1\r\nFormat                      : AVC\r\nFormat/Info                 : Advanced Video Codec\r\nFormat profile              :   \r\nFormat settings, CABAC      : Yes\r\nFormat settings, ReFrames   : 1 frame\r\nCodec ID                    : avc1\r\nCodec ID/Info               : Advanced Video Coding\r\nDuration                    : 46mn 0s\r\nBit rate                    : 938 Kbps\r\nWidth                       : 1 024 pixels\r\nHeight                      : 576 pixels\r\nDisplay aspect ratio        : 16:9\r\nFrame rate mode             : Constant\r\nFrame rate                  : 25.000 fps\r\nColor space                 : YUV\r\nChroma subsampling          : 4:2:0\r\nBit depth                   : 8 bits\r\nScan type                   : Progressive\r\nBits/(Pixel*Frame)          : 0.064\r\nStream size                 : 310 MiB (78%)\r\nWriting library             : x264 core 129\r\n\r\n\r\nAudio\r\nID                          : 2\r\nFormat                      : MPEG Audio\r\nFormat version              : Version 1\r\nFormat profile              : Layer 3\r\nMode                        : Joint stereo\r\nMode extension              : MS Stereo\r\nCodec ID                    : 6B\r\nDuration                    : 46mn 0s\r\nBit rate mode               : Constant\r\nBit rate                    : 256 Kbps\r\nChannel(s)                  : 2 channels\r\nSampling rate               : 48.0 KHz\r\nCompression mode            : Lossy\r\nStream size                 : 84.2 MiB (21%)\r\nLanguage                    : Turkish\r\nDefault                     : Yes","torrent":{"xt":"urn:btih:d72efff6dab1072f078c854abefbcaa41151a310","amp;dn":"Kara+Sevda+S01E24.Dvdrip.Anonymous.Greek+Subs","amp;tr":["udp%3A%2F%2Ftracker.leechers-paradise.org%3A6969","udp%3A%2F%2Fzer0day.ch%3A1337","udp%3A%2F%2Fopen.demonii.com%3A1337","udp%3A%2F%2Ftracker.coppersurfer.tk%3A6969","udp%3A%2F%2Fexodus.desync.com%3A6969"],"infoHash":"d72efff6dab1072f078c854abefbcaa41151a310","infoHashBuffer":{"type":"Buffer","data":[215,46,255,246,218,177,7,47,7,140,133,74,190,251,202,164,17,81,163,16]},"announce":[],"urlList":[]}}